<?xml version="1.0" encoding="utf-8"?>
<!-- Generator: Adobe Illustrator 21.0.0, SVG Export Plug-In . SVG Version: 6.00 Build 0)  -->
<svg version="1.1" id="Layer_1" xmlns="http://www.w3.org/2000/svg" xmlns:xlink="http://www.w3.org/1999/xlink" x="0px" y="0px"
	 viewBox="0 0 200 200" style="enable-background:new 0 0 200 200;" xml:space="preserve">
<style type="text/css">
	.st0{fill:#F2F2F2;}
	.st1{fill:#023756;}
</style>
<path class="st0" d="M192.7,26v148c0,10.3-8.4,18.7-18.7,18.7H26c-10.3,0-18.7-8.4-18.7-18.7V26C7.3,15.7,15.7,7.3,26,7.3h148
	C184.3,7.3,192.7,15.7,192.7,26z"/>
<path class="st1" d="M174,0H26C11.7,0,0,11.7,0,26v148c0,14.3,11.7,26,26,26h148c14.3,0,26-11.7,26-26V26C200,11.7,188.3,0,174,0z
	 M192.7,174c0,10.3-8.4,18.7-18.7,18.7H26c-10.3,0-18.7-8.4-18.7-18.7V26C7.3,15.7,15.7,7.3,26,7.3h148c10.3,0,18.7,8.4,18.7,18.7
	V174z"/>
<path class="st1" d="M161.5,33.9c-5.8,0-10.5,4.7-10.5,10.5c0,2.5,0.9,4.8,2.4,6.6l-26.1,68.7l-7.9,20.7l-7.9-20.7l-9.4-24.7
	c1.2-1.7,1.9-3.8,1.9-6c0-5.8-4.7-10.5-10.5-10.5c-5.8,0-10.5,4.7-10.5,10.5c0,2.3,0.7,4.3,1.9,6l-9.4,24.7l-7.9,20.7L60,119.6
	L46.7,84.9c1.3-1.8,2.2-3.9,2.2-6.3c0-5.8-4.7-10.5-10.5-10.5c-5.8,0-10.5,4.7-10.5,10.5c0,5.1,3.7,9.4,8.6,10.3l11.7,30.7
	l11.3,29.7c-1.4,1.8-2.2,4-2.2,6.4c0,5.8,4.7,10.5,10.5,10.5c5.8,0,10.5-4.7,10.5-10.5c0-2.4-0.8-4.6-2.2-6.4l11.3-29.7l6.3-16.4
	l6.3,16.4l11.3,29.7c-1.4,1.8-2.2,4-2.2,6.4c0,5.8,4.7,10.5,10.5,10.5c5.8,0,10.5-4.7,10.5-10.5c0-2.4-0.8-4.6-2.2-6.4l11.3-29.7
	l24.7-65.1c4.7-1,8.2-5.2,8.2-10.2C172,38.5,167.3,33.9,161.5,33.9z M38.5,83.6c-2.8,0-5-2.2-5-5c0-2.8,2.2-5,5-5c2.7,0,5,2.2,5,5
	C43.4,81.4,41.2,83.6,38.5,83.6z M67.8,160.7c-2.7,0-5-2.2-5-5c0-2.8,2.2-5,5-5c2.8,0,5,2.2,5,5C72.8,158.4,70.6,160.7,67.8,160.7z
	 M93.6,93.9c-2.8,0-5-2.2-5-5c0-2.8,2.2-5,5-5c2.8,0,5,2.2,5,5C98.6,91.6,96.4,93.9,93.6,93.9z M119.5,160.7c-2.8,0-5-2.2-5-5
	c0-2.8,2.2-5,5-5c2.8,0,5,2.2,5,5C124.5,158.4,122.2,160.7,119.5,160.7z M161.5,49.3c-2.8,0-5-2.2-5-5v0c0-2.8,2.2-5,5-5
	c2.8,0,5,2.2,5,5v0C166.5,47.1,164.3,49.3,161.5,49.3z"/>
</svg>
