<?xml version="1.0" encoding="UTF-8"?>
<svg width="467px" height="605px" viewBox="0 0 467 605" version="1.1" xmlns="http://www.w3.org/2000/svg" xmlns:xlink="http://www.w3.org/1999/xlink">
    <!-- Generator: Sketch 53.2 (72643) - https://sketchapp.com -->
    <title>Group 8 Copy 4</title>
    <desc>Created with Sketch.</desc>
    <g id="Page-1" stroke="none" stroke-width="1" fill="none" fill-rule="evenodd">
        <g id="Group-8-Copy-4">
            <g id="Group-3-Copy-2">
                <path d="M160.392742,175.647923 C147.088698,155.920178 135.126913,130.098741 130.354397,97.6430919 C128.267397,83.4560919 145.725397,75.0860919 155.468397,85.6060919 C174.324755,105.965535 201.178128,132.398548 229.808397,152.362773 C258.438666,132.398548 285.292039,105.965535 304.148397,85.6060919 C313.892397,75.0860919 331.348397,83.4560919 329.262397,97.6430919 C324.273647,131.569246 311.429405,158.246402 297.407986,178.291928 C349.928574,171.875216 370.185176,142.272932 383.809334,106.431997 C360.939531,88.3502817 358.13247,67.0702304 361.254641,50.0225851 C363.809351,36.0692644 381.154977,30.8287767 390.759122,41.2673691 C394.382191,45.2053047 398.133014,48.9101502 401.723312,52.253811 C401.783907,52.0794103 401.844621,51.9050502 401.905459,51.7307322 C404.215527,45.1117309 415.608521,1.81509679 427.826509,0.229379892 C467.250652,-4.88730012 454.872195,77.2355129 454.175925,82.991761 C451.88229,101.953842 446.384502,119.81939 438.931641,136.89659 C441.687401,136.664805 444.504003,136.372053 447.335397,136.005092 C461.402397,134.182092 471.321397,149.346092 464.309397,161.677092 C455.591047,177.010669 439.349988,191.754841 409.20776,190.331531 C400.09319,204.34034 390.507587,217.99009 381.334125,231.498685 L242.104214,246.355066 C241.799082,246.726884 241.48956,247.100134 241.175632,247.474814 L236.392941,246.964482 L231.61025,247.474814 C231.296322,247.100134 230.9868,246.726884 230.681668,246.355066 L91.4517568,231.498685 C82.17668,217.840455 72.4802806,204.037925 63.2754092,189.86587 C29.3438645,193.610996 11.5752186,177.977064 2.30739696,161.677092 C-4.70460304,149.346092 5.21439696,134.182092 19.281397,136.005092 C24.3377723,136.660421 29.3469724,137.079084 34.0467339,137.336497 C26.4960684,120.12624 20.9232947,102.116727 18.6099575,82.991761 C17.9136873,77.2355129 5.53522953,-4.88730012 44.9593734,0.229379892 C57.1773606,1.81509679 68.5703553,45.1117309 70.8804227,51.7307322 C70.9634502,51.9686298 71.0462486,52.2066059 71.1288241,52.4446564 C74.7812268,49.0513308 78.6060413,45.2803813 82.2981834,41.2673691 C91.9023288,30.8287767 109.247955,36.0692644 111.802665,50.0225851 C114.934312,67.1219753 112.10068,88.4795038 89.0391667,106.59656 C101.281522,138.737153 118.894796,165.834548 160.392742,175.647923 Z" id="Combined-Shape" fill="#57565C"></path>
                <circle id="Oval-Copy-2" fill="#E2A77F" cx="237.5" cy="443.5" r="141.5"></circle>
                <circle id="Oval-Copy-3" fill="#FFF4E5" cx="233" cy="444" r="100"></circle>
                <g id="Group-6" transform="translate(81.000000, 475.000000)">
                    <circle id="Oval-Copy-2" fill="#E2A77F" cx="65" cy="65" r="65"></circle>
                    <circle id="Oval-Copy-4" fill="#57565C" cx="65" cy="75" r="50"></circle>
                </g>
                <g id="Group-4" transform="translate(61.000000, 385.000000)">
                    <circle id="Oval-Copy-2" fill="#E2A77F" cx="40" cy="40" r="40"></circle>
                    <ellipse id="Oval-Copy-4" fill="#57565C" cx="44" cy="48.5" rx="31" ry="30.5"></ellipse>
                </g>
                <g id="Group-4-Copy" transform="translate(364.000000, 425.000000) scale(-1, 1) translate(-364.000000, -425.000000) translate(324.000000, 385.000000)">
                    <circle id="Oval-Copy-2" fill="#E2A77F" cx="40" cy="40" r="40"></circle>
                    <ellipse id="Oval-Copy-4" fill="#57565C" cx="44" cy="48.5" rx="31" ry="30.5"></ellipse>
                </g>
                <circle id="Oval-Copy-2" fill="#E2A77F" cx="73" cy="230" r="40"></circle>
                <circle id="Oval-Copy-2" fill="#FFF4E5" cx="73.5" cy="235.5" r="30.5"></circle>
                <circle id="Oval-Copy-9" fill="#E2A77F" cx="389" cy="230" r="40"></circle>
                <circle id="Oval-Copy-10" fill="#FFF4E5" cx="388.5" cy="235.5" r="30.5"></circle>
                <g id="Group-5" transform="translate(249.000000, 475.000000)">
                    <circle id="Oval-Copy-6" fill="#E2A77F" cx="65" cy="65" r="65"></circle>
                    <circle id="Oval-Copy-5" fill="#57565C" cx="65" cy="75" r="50"></circle>
                </g>
                <circle id="Oval" fill="#E2A77F" cx="232.5" cy="284.5" r="156.5"></circle>
                <g id="Group-2" transform="translate(142.000000, 310.000000)" fill="#57565C" fill-rule="nonzero">
                    <circle id="Oval" cx="91" cy="39.731" r="39.731"></circle>
                    <g id="Group" transform="translate(0.000000, 2.673000)">
                        <path d="M174.09,29.048 C169.823,29.048 166.364,25.589 166.364,21.322 L166.364,8.496 C166.364,4.229 169.823,0.77 174.09,0.77 C178.357,0.77 181.816,4.229 181.816,8.496 L181.816,21.322 C181.817,25.59 178.357,29.048 174.09,29.048 Z" id="Path"></path>
                        <path d="M7.91,29.048 C3.643,29.048 0.184,25.589 0.184,21.322 L0.184,8.496 C0.184,4.229 3.643,0.77 7.91,0.77 C12.177,0.77 15.636,4.229 15.636,8.496 L15.636,21.322 C15.636,25.59 12.177,29.048 7.91,29.048 Z" id="Path"></path>
                    </g>
                </g>
            </g>
            <path d="M220.769669,420.685582 C220.659241,421.413235 220.158091,422.021443 219.464983,422.268982 C218.424763,422.640489 217.280333,422.09839 216.908826,421.058171 L209.578646,400.533668 L223.6698,401.575557 L220.769669,420.685582 Z M252.761398,420.054645 C252.562811,420.763332 251.991043,421.305687 251.272865,421.466605 C250.195021,421.708112 249.125476,421.030126 248.883969,419.952282 L244.657855,401.091111 L258.642005,399.068811 L252.761398,420.054645 Z" id="Combined-Shape" fill="#FFFFFF"></path>
            <path d="M207,400 C216,402 225,403 234,403 C243,403 252,402 261,400" id="Line" stroke="#57565C" stroke-width="5" stroke-linecap="round" stroke-linejoin="round"></path>
        </g>
    </g>
</svg>