<?xml version="1.0" encoding="utf-8"?>
<!-- Generator: Adobe Illustrator 21.0.0, SVG Export Plug-In . SVG Version: 6.00 Build 0)  -->
<svg version="1.1" id="Layer_1" xmlns="http://www.w3.org/2000/svg" xmlns:xlink="http://www.w3.org/1999/xlink" x="0px" y="0px"
	 viewBox="0 0 381.4 100" style="enable-background:new 0 0 381.4 100;" xml:space="preserve">
<style type="text/css">
	.st0{fill:#F2F2F2;}
	.st1{fill:#00CDE5;}
</style>
<g>
	<path class="st0" d="M96.3,13v74c0,5.2-4.2,9.3-9.3,9.3H13c-5.2,0-9.3-4.2-9.3-9.3V13c0-5.2,4.2-9.3,9.3-9.3h74
		C92.1,3.7,96.3,7.9,96.3,13z"/>
	<path class="st1" d="M87,0H13C5.8,0,0,5.8,0,13v74c0,7.2,5.8,13,13,13h74c7.2,0,13-5.8,13-13V13C100,5.8,94.2,0,87,0z M96.3,87
		c0,5.2-4.2,9.3-9.3,9.3H13c-5.2,0-9.3-4.2-9.3-9.3V13c0-5.2,4.2-9.3,9.3-9.3h74c5.2,0,9.3,4.2,9.3,9.3V87z"/>
	<path class="st1" d="M80.8,16.9c-2.9,0-5.2,2.3-5.2,5.2c0,1.3,0.4,2.4,1.2,3.3L63.7,59.8l-3.9,10.3l-3.9-10.3l-4.7-12.4
		c0.6-0.9,1-1.9,1-3c0-2.9-2.3-5.2-5.2-5.2c-2.9,0-5.2,2.3-5.2,5.2c0,1.1,0.4,2.2,1,3l-4.7,12.4l-3.9,10.3L30,59.8l-6.6-17.4
		c0.7-0.9,1.1-2,1.1-3.1c0-2.9-2.3-5.2-5.2-5.2c-2.9,0-5.2,2.3-5.2,5.2c0,2.6,1.9,4.7,4.3,5.1l5.8,15.4l5.7,14.9
		c-0.7,0.9-1.1,2-1.1,3.2c0,2.9,2.3,5.2,5.2,5.2c2.9,0,5.2-2.3,5.2-5.2c0-1.2-0.4-2.3-1.1-3.2l5.6-14.9l3.1-8.2l3.1,8.2l5.7,14.8
		c-0.7,0.9-1.1,2-1.1,3.2c0,2.9,2.3,5.2,5.2,5.2c2.9,0,5.2-2.3,5.2-5.2c0-1.2-0.4-2.3-1.1-3.2l5.6-14.9l12.4-32.5
		c2.3-0.5,4.1-2.6,4.1-5.1C86,19.3,83.7,16.9,80.8,16.9z M19.2,41.8c-1.4,0-2.5-1.1-2.5-2.5c0-1.4,1.1-2.5,2.5-2.5
		c1.4,0,2.5,1.1,2.5,2.5C21.7,40.7,20.6,41.8,19.2,41.8z M33.9,80.3c-1.4,0-2.5-1.1-2.5-2.5c0-1.4,1.1-2.5,2.5-2.5
		c1.4,0,2.5,1.1,2.5,2.5C36.4,79.2,35.3,80.3,33.9,80.3z M46.8,46.9c-1.4,0-2.5-1.1-2.5-2.5c0-1.4,1.1-2.5,2.5-2.5
		c1.4,0,2.5,1.1,2.5,2.5C49.3,45.8,48.2,46.9,46.8,46.9z M59.7,80.3c-1.4,0-2.5-1.1-2.5-2.5c0-1.4,1.1-2.5,2.5-2.5
		c1.4,0,2.5,1.1,2.5,2.5C62.2,79.2,61.1,80.3,59.7,80.3z M80.8,24.6c-1.4,0-2.5-1.1-2.5-2.5v0c0-1.4,1.1-2.5,2.5-2.5
		c1.4,0,2.5,1.1,2.5,2.5v0C83.3,23.5,82.2,24.6,80.8,24.6z"/>
</g>
<g>
	<g>
		<path class="st1" d="M158.6,28.6c0.7-0.9,1.1-1.9,1.1-3c0-1.3-0.5-2.4-1.3-3.3c-0.9-0.9-2-1.4-3.3-1.4c-1.3,0-2.4,0.5-3.3,1.4
			s-1.4,2-1.4,3.3c0,1.1,0.4,2.1,1.1,3c0.4,0.5,0.9,0.9,1.4,1.1v27l-5.5-5.5c0.1-0.4,0.2-0.9,0.2-1.4c0-1.3-0.5-2.4-1.3-3.3
			c-0.9-0.9-2-1.4-3.3-1.4c-1.3,0-2.4,0.5-3.3,1.4c-0.9,0.9-1.4,2-1.4,3.3c0,0.5,0.1,1,0.2,1.4l-5.5,5.5v-27c0.5-0.3,1-0.7,1.4-1.1
			c0.7-0.9,1.1-1.9,1.1-3c0-1.3-0.5-2.4-1.4-3.3c-0.9-0.9-2-1.4-3.3-1.4c-1.3,0-2.4,0.5-3.3,1.4c-0.9,0.9-1.3,2-1.3,3.3
			c0,1.1,0.4,2.1,1.1,3c0.4,0.5,0.9,0.9,1.4,1.1v28.1c-0.5,0.3-1,0.7-1.4,1.1c-0.7,0.9-1.1,1.9-1.1,3c0,1.3,0.5,2.4,1.4,3.3
			c0.9,0.9,2,1.4,3.3,1.4c1.3,0,2.4-0.5,3.3-1.3c0.9-0.9,1.4-2,1.4-3.3c0-0.5-0.1-1-0.2-1.4l6.3-6.3c0.9,0.3,1.9,0.3,2.8,0l6.3,6.3
			c-0.1,0.4-0.2,0.9-0.2,1.4c0,1.3,0.5,2.4,1.4,3.3c0.9,0.9,2,1.3,3.3,1.3c1.3,0,2.4-0.5,3.3-1.4c0.9-0.9,1.4-2,1.4-3.3
			c0-1.1-0.4-2.1-1.1-3c-0.4-0.5-0.9-0.9-1.4-1.1V29.7C157.8,29.4,158.2,29.1,158.6,28.6z"/>
		<path class="st1" d="M195.6,41.1c0.7-0.9,1.1-1.9,1.1-3c0-1.3-0.5-2.4-1.3-3.3c-0.9-0.9-2-1.4-3.3-1.4c-1.1,0-2.1,0.4-3,1.1
			c-0.5,0.4-0.9,0.9-1.1,1.4h-16c-0.3-0.5-0.7-1-1.1-1.4c-0.9-0.7-1.9-1.1-3-1.1c-1.3,0-2.4,0.5-3.3,1.4c-0.9,0.9-1.3,2-1.3,3.3
			c0,1.1,0.4,2.1,1.1,3c0.4,0.5,0.9,0.9,1.4,1.1v3.9c-0.5,0.3-1,0.7-1.4,1.1c-0.7,0.9-1.1,1.9-1.1,3s0.4,2.1,1.1,3
			c0.4,0.5,0.9,0.9,1.4,1.1v3.9c-0.5,0.3-1,0.7-1.4,1.1c-0.7,0.9-1.1,1.9-1.1,3c0,1.3,0.5,2.4,1.4,3.3c0.9,0.9,2,1.4,3.3,1.4
			c1.1,0,2.1-0.4,3-1.1c0.5-0.4,0.9-0.9,1.1-1.4h16c0.3,0.5,0.7,1,1.1,1.4c0.9,0.7,1.9,1.1,3,1.1c1.3,0,2.4-0.5,3.3-1.4
			c0.9-0.9,1.4-2,1.4-3.3c0-1.3-0.5-2.4-1.3-3.3c-0.9-0.9-2-1.4-3.3-1.4c-1.1,0-2.1,0.4-3,1.1c-0.5,0.4-0.9,0.9-1.1,1.4h-16
			c-0.2-0.4-0.5-0.8-0.8-1.1c-0.3-0.3-0.7-0.6-1.1-0.8v-3.9c0.4-0.2,0.8-0.5,1.1-0.8c0.3-0.3,0.6-0.7,0.8-1.1h16
			c0.3,0.5,0.7,1,1.1,1.4c0.9,0.7,1.9,1.1,3,1.1c1.3,0,2.4-0.5,3.3-1.4c0.9-0.9,1.4-2,1.4-3.3c0-1.1-0.4-2.1-1.1-3
			c-0.4-0.5-0.9-0.9-1.4-1.1v-3.9C194.7,41.9,195.2,41.5,195.6,41.1z M189.9,42.2v3.9c-0.4,0.2-0.8,0.5-1.1,0.8
			c-0.3,0.3-0.6,0.7-0.8,1.1h-16c-0.2-0.4-0.5-0.8-0.8-1.1c-0.3-0.3-0.7-0.6-1.1-0.8v-3.9c0.4-0.2,0.8-0.5,1.1-0.8
			c0.3-0.3,0.6-0.7,0.8-1.1h16c0.2,0.4,0.5,0.8,0.8,1.1S189.5,42,189.9,42.2z"/>
		<path class="st1" d="M232.5,53.2c0.7-0.9,1.1-1.9,1.1-3c0-1.3-0.5-2.4-1.3-3.3c-0.9-0.9-2-1.4-3.3-1.4c-0.5,0-1,0.1-1.4,0.2
			l-6.3-6.3c0.1-0.4,0.2-0.9,0.2-1.4c0-1.3-0.5-2.4-1.4-3.3c-0.9-0.9-2-1.4-3.3-1.4c-1.3,0-2.4,0.5-3.3,1.4c-0.9,0.9-1.3,2-1.3,3.3
			c0,0.5,0.1,1,0.2,1.4l-5.5,5.5v-2.8c0.5-0.3,1-0.7,1.4-1.1c0.7-0.9,1.1-1.9,1.1-3c0-1.3-0.5-2.4-1.4-3.3c-0.9-0.9-2-1.4-3.3-1.4
			c-1.3,0-2.4,0.5-3.3,1.4c-0.9,0.9-1.3,2-1.3,3.3c0,1.1,0.4,2.1,1.1,3c0.4,0.5,0.9,0.9,1.4,1.1v3.9c-0.5,0.3-1,0.7-1.4,1.1
			c-0.7,0.9-1.1,1.9-1.1,3s0.4,2.1,1.1,3c0.4,0.5,0.9,0.9,1.4,1.1v3.9c-0.5,0.3-1,0.7-1.4,1.1c-0.7,0.9-1.1,1.9-1.1,3
			c0,1.3,0.5,2.4,1.4,3.3c0.9,0.9,2,1.4,3.3,1.4c1.3,0,2.4-0.5,3.3-1.3c0.9-0.9,1.4-2,1.4-3.3c0-1.1-0.4-2.1-1.1-3
			c-0.4-0.5-0.9-0.9-1.4-1.1v-3.9c0.5-0.3,1-0.7,1.4-1.1c0.7-0.9,1.1-1.9,1.1-3c0-0.5-0.1-1-0.2-1.4l6.3-6.3c0.9,0.3,1.9,0.3,2.8,0
			l6.3,6.3c-0.1,0.4-0.2,0.9-0.2,1.4c0,1.1,0.4,2.1,1.1,3c0.4,0.5,0.9,0.9,1.4,1.1v3.9c-0.5,0.3-1,0.7-1.4,1.1
			c-0.7,0.9-1.1,1.9-1.1,3c0,1.3,0.5,2.4,1.4,3.3c0.9,0.9,2,1.3,3.3,1.3c1.3,0,2.4-0.5,3.3-1.4c0.9-0.9,1.4-2,1.4-3.3
			c0-1.1-0.4-2.1-1.1-3c-0.4-0.5-0.9-0.9-1.4-1.1v-3.9C231.7,54,232.1,53.7,232.5,53.2z"/>
		<path class="st1" d="M269.5,28.6c0.7-0.9,1.1-1.9,1.1-3c0-1.3-0.5-2.4-1.3-3.3c-0.9-0.9-2-1.4-3.3-1.4c-1.3,0-2.4,0.5-3.3,1.4
			c-0.9,0.9-1.4,2-1.4,3.3c0,1.1,0.4,2.1,1.1,3c0.4,0.5,0.9,0.9,1.4,1.1v3.9c-0.4,0.2-0.8,0.5-1.1,0.8c-0.3,0.3-0.6,0.7-0.8,1.1
			h-3.9c-0.3-0.5-0.7-1-1.1-1.4c-0.9-0.7-1.9-1.1-3-1.1c-1.3,0-2.4,0.5-3.3,1.4c-0.9,0.9-1.3,2-1.3,3.3c0,0.5,0.1,1,0.2,1.4
			l-6.3,6.3c-0.4-0.1-0.9-0.2-1.4-0.2c-1.3,0-2.4,0.5-3.3,1.4c-0.9,0.9-1.3,2-1.3,3.3c0,1.1,0.4,2.1,1.1,3c0.4,0.5,0.9,0.9,1.4,1.1
			v3.9c-0.5,0.3-1,0.7-1.4,1.1c-0.7,0.9-1.1,1.9-1.1,3c0,1.3,0.5,2.4,1.4,3.3c0.9,0.9,2,1.4,3.3,1.4c1.1,0,2.1-0.4,3-1.1
			c0.5-0.4,0.9-0.9,1.1-1.4h16c0.3,0.5,0.7,1,1.1,1.4c0.9,0.7,1.9,1.1,3,1.1c1.3,0,2.4-0.5,3.3-1.4c0.9-0.9,1.4-2,1.4-3.3
			c0-1.1-0.4-2.1-1.1-3c-0.4-0.5-0.9-0.9-1.4-1.1v-16c0.5-0.3,1-0.7,1.4-1.1c0.7-0.9,1.1-1.9,1.1-3c0-1.1-0.4-2.1-1.1-3
			c-0.4-0.5-0.9-0.9-1.4-1.1v-3.9C268.6,29.5,269.1,29.1,269.5,28.6z M243.8,54c0.5-0.3,1-0.7,1.4-1.1c0.7-0.9,1.1-1.9,1.1-3
			c0-0.5-0.1-1-0.2-1.4l6.3-6.3c0.4,0.1,0.9,0.2,1.4,0.2c1.1,0,2.1-0.4,3-1.1c0.5-0.4,0.9-0.9,1.1-1.4h3.9c0.2,0.4,0.5,0.8,0.8,1.1
			c0.3,0.4,0.7,0.6,1.1,0.9v16c-0.4,0.2-0.8,0.5-1.1,0.8c-0.3,0.3-0.6,0.7-0.8,1.1h-16c-0.2-0.4-0.5-0.8-0.8-1.1
			c-0.3-0.3-0.7-0.6-1.1-0.8V54z"/>
		<path class="st1" d="M302.9,57.6c-1.1,0-2.1,0.4-3,1.1c-0.5,0.4-0.9,0.9-1.1,1.4h-3.9c-0.2-0.4-0.5-0.8-0.8-1.1
			c-0.3-0.4-0.7-0.6-1.1-0.9v-16c0.5-0.3,1-0.7,1.4-1.1c0.7-0.9,1.1-1.9,1.1-3c0-1.3-0.5-2.4-1.3-3.3c-0.9-0.9-2-1.4-3.3-1.4
			c-1.1,0-2.1,0.4-3,1.1c-0.5,0.4-0.9,0.9-1.1,1.4h-3.9c-0.3-0.5-0.7-1-1.1-1.4c-0.9-0.7-1.9-1.1-3-1.1c-1.3,0-2.4,0.5-3.3,1.4
			c-0.9,0.9-1.3,2-1.3,3.3c0,1.3,0.5,2.4,1.4,3.3c0.9,0.9,2,1.4,3.3,1.4c1.1,0,2.1-0.4,3-1.1c0.5-0.4,0.9-0.9,1.1-1.4h3.9
			c0.2,0.4,0.5,0.8,0.8,1.1c0.3,0.4,0.7,0.6,1.1,0.9v16c-0.4,0.2-0.8,0.5-1.1,0.9c-0.3,0.3-0.6,0.7-0.8,1.1h-3.9
			c-0.3-0.5-0.7-1-1.1-1.4c-0.9-0.7-1.9-1.1-3-1.1c-1.3,0-2.4,0.5-3.3,1.4c-0.9,0.9-1.3,2-1.3,3.3c0,1.3,0.5,2.4,1.4,3.3
			c0.9,0.9,2,1.4,3.3,1.4c1.1,0,2.1-0.4,3-1.1c0.5-0.4,0.9-0.9,1.1-1.4h3.9c0.3,0.5,0.7,1,1.1,1.4c0.9,0.7,1.9,1.1,3,1.1
			c1.1,0,2.1-0.4,3-1.1c0.5-0.4,0.9-0.9,1.1-1.4h3.9c0.3,0.5,0.7,1,1.1,1.4c0.9,0.7,1.9,1.1,3,1.1c1.3,0,2.4-0.5,3.3-1.4
			c0.9-0.9,1.4-2,1.4-3.3c0-1.3-0.5-2.4-1.3-3.3C305.3,58.1,304.2,57.6,302.9,57.6z"/>
		<path class="st1" d="M290.8,30.6c1.3,0,2.4-0.5,3.3-1.4c0.9-0.9,1.4-2,1.4-3.3c0-1.3-0.5-2.4-1.3-3.3c-0.9-0.9-2-1.4-3.3-1.4
			c-1.3,0-2.4,0.5-3.3,1.4c-0.9,0.9-1.4,2-1.4,3.3c0,1.3,0.5,2.4,1.4,3.3C288.4,30.1,289.5,30.6,290.8,30.6z"/>
		<path class="st1" d="M343.4,41c0.7-0.9,1.1-1.9,1.1-3c0-1.3-0.5-2.4-1.3-3.3c-0.9-0.9-2-1.4-3.3-1.4c-1.1,0-2.1,0.4-3,1.1
			c-0.5,0.4-0.9,0.9-1.1,1.4h-3.9c-0.3-0.5-0.7-1-1.1-1.4c-0.9-0.7-1.9-1.1-3-1.1c-1.3,0-2.4,0.5-3.3,1.4c-0.9,0.9-1.3,2-1.3,3.3
			c0,0.5,0.1,1,0.2,1.4l-6.3,6.3c-0.4-0.1-0.9-0.2-1.4-0.2c-1.3,0-2.4,0.5-3.3,1.4c-0.9,0.9-1.3,2-1.3,3.3c0,1.1,0.4,2.1,1.1,3
			c0.4,0.5,0.9,0.9,1.4,1.1v3.9c-0.5,0.3-1,0.7-1.4,1.2c-0.7,0.9-1.1,1.9-1.1,3c0,1.3,0.5,2.4,1.4,3.3c0.9,0.9,2,1.4,3.3,1.4
			c1.1,0,2.1-0.4,3-1.1c0.5-0.4,0.9-0.9,1.1-1.4h16c0.2,0.4,0.5,0.8,0.8,1.1c0.3,0.4,0.7,0.6,1.1,0.9v3.8c-0.4,0.2-0.8,0.5-1.1,0.9
			c-0.3,0.3-0.6,0.7-0.8,1.1h-16c-0.3-0.5-0.7-1-1.1-1.4c-0.9-0.7-1.9-1.1-3-1.1c-1.3,0-2.4,0.5-3.3,1.4c-0.9,0.9-1.4,2-1.4,3.3
			c0,1.3,0.5,2.4,1.3,3.3c0.9,0.9,2,1.4,3.3,1.4c1.1,0,2.1-0.4,3-1.1c0.5-0.4,0.9-0.9,1.1-1.4h16c0.3,0.5,0.7,1,1.1,1.4
			c0.9,0.7,1.9,1.1,3,1.1c1.3,0,2.4-0.5,3.3-1.4c0.9-0.9,1.3-2,1.3-3.3c0-1.1-0.4-2.1-1.1-3c-0.4-0.5-0.9-0.9-1.4-1.1v-3.9
			c0.5-0.3,1-0.7,1.4-1.1c0.7-0.9,1.1-1.9,1.1-3c0-1.1-0.4-2.1-1.1-3c-0.4-0.5-0.9-0.9-1.4-1.2v-16C342.5,41.9,343,41.5,343.4,41z
			 M317.8,54.3c0.5-0.3,1-0.7,1.4-1.1c0.7-0.9,1.1-1.9,1.1-3c0-0.5-0.1-1-0.2-1.4l6.3-6.3c0.4,0.1,0.9,0.2,1.4,0.2
			c1.1,0,2.1-0.4,3-1.1c0.5-0.4,0.9-0.9,1.1-1.4h3.9c0.2,0.4,0.5,0.8,0.8,1.1c0.3,0.4,0.7,0.6,1.1,0.9v16c-0.4,0.2-0.8,0.5-1.1,0.9
			c-0.3,0.3-0.6,0.7-0.8,1.1h-16c-0.2-0.4-0.5-0.8-0.8-1.1c-0.3-0.4-0.7-0.6-1.1-0.9V54.3z"/>
		<path class="st1" d="M379,58.2v-16c0.5-0.3,1-0.7,1.4-1.1c0.7-0.9,1.1-1.9,1.1-3c0-1.3-0.5-2.4-1.3-3.3c-0.9-0.9-2-1.4-3.3-1.4
			c-1.1,0-2.1,0.4-3,1.1c-0.5,0.4-0.9,0.9-1.1,1.4h-16c-0.3-0.5-0.7-1-1.1-1.4c-0.9-0.7-1.9-1.1-3-1.1c-1.3,0-2.4,0.5-3.3,1.4
			c-0.9,0.9-1.3,2-1.3,3.3c0,1.1,0.4,2.1,1.1,3c0.4,0.5,0.9,0.9,1.4,1.1v16c-0.5,0.3-1,0.7-1.4,1.1c-0.7,0.9-1.1,1.9-1.1,3
			c0,1.3,0.5,2.4,1.4,3.3c0.9,0.9,2,1.4,3.3,1.4c1.1,0,2.1-0.4,3-1.1c0.5-0.4,0.9-0.9,1.1-1.4h16c0.3,0.5,0.7,1,1.1,1.4
			c0.9,0.7,1.9,1.1,3,1.1c1.3,0,2.4-0.5,3.3-1.4c0.9-0.9,1.4-2,1.4-3.3c0-1.1-0.4-2.1-1.1-3C379.9,58.9,379.5,58.5,379,58.2z
			 M374.6,42.2v16c-0.4,0.2-0.8,0.5-1.1,0.8c-0.3,0.3-0.6,0.7-0.8,1.1h-16c-0.2-0.4-0.5-0.8-0.8-1.1c-0.3-0.3-0.7-0.6-1.1-0.8v-16
			c0.4-0.2,0.8-0.5,1.1-0.8c0.3-0.3,0.6-0.7,0.8-1.1h16c0.2,0.4,0.5,0.8,0.8,1.1S374.2,42,374.6,42.2z"/>
	</g>
</g>
</svg>
