<?xml version="1.0" encoding="utf-8"?>
<!-- Generator: Adobe Illustrator 21.0.0, SVG Export Plug-In . SVG Version: 6.00 Build 0)  -->
<svg version="1.1" id="Layer_1" xmlns="http://www.w3.org/2000/svg" xmlns:xlink="http://www.w3.org/1999/xlink" x="0px" y="0px"
	 viewBox="0 0 100 100" style="enable-background:new 0 0 100 100;" xml:space="preserve">
<style type="text/css">
	.st0{fill:#F2F2F2;}
	.st1{fill:#023756;}
</style>
<path class="st0" d="M96.3,13v74c0,5.2-4.2,9.3-9.3,9.3H13c-5.2,0-9.3-4.2-9.3-9.3V13c0-5.2,4.2-9.3,9.3-9.3h74
	C92.1,3.7,96.3,7.9,96.3,13z"/>
<path class="st1" d="M87,0H13C5.8,0,0,5.8,0,13v74c0,7.2,5.8,13,13,13h74c7.2,0,13-5.8,13-13V13C100,5.8,94.2,0,87,0z M96.3,87
	c0,5.2-4.2,9.3-9.3,9.3H13c-5.2,0-9.3-4.2-9.3-9.3V13c0-5.2,4.2-9.3,9.3-9.3h74c5.2,0,9.3,4.2,9.3,9.3V87z"/>
<path class="st1" d="M80.8,16.9c-2.9,0-5.2,2.3-5.2,5.2c0,1.3,0.4,2.4,1.2,3.3L63.7,59.8l-3.9,10.3l-3.9-10.3l-4.7-12.4
	c0.6-0.9,1-1.9,1-3c0-2.9-2.3-5.2-5.2-5.2c-2.9,0-5.2,2.3-5.2,5.2c0,1.1,0.4,2.2,1,3l-4.7,12.4l-3.9,10.3L30,59.8l-6.6-17.4
	c0.7-0.9,1.1-2,1.1-3.1c0-2.9-2.3-5.2-5.2-5.2c-2.9,0-5.2,2.3-5.2,5.2c0,2.6,1.9,4.7,4.3,5.1l5.8,15.4l5.7,14.9
	c-0.7,0.9-1.1,2-1.1,3.2c0,2.9,2.3,5.2,5.2,5.2c2.9,0,5.2-2.3,5.2-5.2c0-1.2-0.4-2.3-1.1-3.2l5.6-14.9l3.1-8.2l3.1,8.2l5.7,14.8
	c-0.7,0.9-1.1,2-1.1,3.2c0,2.9,2.3,5.2,5.2,5.2c2.9,0,5.2-2.3,5.2-5.2c0-1.2-0.4-2.3-1.1-3.2l5.6-14.9l12.4-32.5
	c2.3-0.5,4.1-2.6,4.1-5.1C86,19.3,83.7,16.9,80.8,16.9z M19.2,41.8c-1.4,0-2.5-1.1-2.5-2.5c0-1.4,1.1-2.5,2.5-2.5
	c1.4,0,2.5,1.1,2.5,2.5C21.7,40.7,20.6,41.8,19.2,41.8z M33.9,80.3c-1.4,0-2.5-1.1-2.5-2.5c0-1.4,1.1-2.5,2.5-2.5
	c1.4,0,2.5,1.1,2.5,2.5C36.4,79.2,35.3,80.3,33.9,80.3z M46.8,46.9c-1.4,0-2.5-1.1-2.5-2.5c0-1.4,1.1-2.5,2.5-2.5
	c1.4,0,2.5,1.1,2.5,2.5C49.3,45.8,48.2,46.9,46.8,46.9z M59.7,80.3c-1.4,0-2.5-1.1-2.5-2.5c0-1.4,1.1-2.5,2.5-2.5
	c1.4,0,2.5,1.1,2.5,2.5C62.2,79.2,61.1,80.3,59.7,80.3z M80.8,24.6c-1.4,0-2.5-1.1-2.5-2.5v0c0-1.4,1.1-2.5,2.5-2.5
	c1.4,0,2.5,1.1,2.5,2.5v0C83.3,23.5,82.2,24.6,80.8,24.6z"/>
</svg>
