<?xml version="1.0" encoding="utf-8"?>
<!-- Generator: Adobe Illustrator 21.0.0, SVG Export Plug-In . SVG Version: 6.00 Build 0)  -->
<svg version="1.1" id="Layer_1" xmlns="http://www.w3.org/2000/svg" xmlns:xlink="http://www.w3.org/1999/xlink" x="0px" y="0px"
	 viewBox="0 0 108.9 100" style="enable-background:new 0 0 108.9 100;" xml:space="preserve">
<style type="text/css">
	.st0{fill:#023756;}
</style>
<path class="st0" d="M101,0c-4.4,0-7.9,3.5-7.9,7.9c0,1.9,0.7,3.7,1.8,5L75.1,64.8l-5.9,15.6l-6-15.6l-7.1-18.7
	c0.9-1.3,1.4-2.8,1.4-4.5c0-4.4-3.5-7.9-7.9-7.9c-4.4,0-7.9,3.6-7.9,7.9c0,1.7,0.6,3.3,1.5,4.5l-7.1,18.7l-5.9,15.6l-5.9-15.6
	l-10-26.2c1-1.3,1.6-3,1.6-4.7c0-4.4-3.5-7.9-7.9-7.9c-4.4,0-7.9,3.5-7.9,7.9c0,3.9,2.8,7.1,6.5,7.8l8.8,23.2l8.6,22.5
	c-1,1.3-1.7,3-1.7,4.8c0,4.4,3.5,7.9,7.9,7.9c4.4,0,7.9-3.6,7.9-7.9c0-1.8-0.6-3.5-1.7-4.8l8.5-22.5l4.7-12.4l4.7,12.4l8.6,22.4
	c-1,1.3-1.7,3-1.7,4.8c0,4.4,3.6,7.9,7.9,7.9c4.4,0,7.9-3.6,7.9-7.9c0-1.8-0.6-3.5-1.6-4.8l8.5-22.5l18.7-49.2
	c3.6-0.8,6.2-4,6.2-7.7C108.9,3.5,105.3,0,101,0z M7.9,37.6c-2.1,0-3.8-1.7-3.8-3.8c0-2.1,1.7-3.8,3.8-3.8c2.1,0,3.8,1.7,3.8,3.8
	C11.7,35.9,10,37.6,7.9,37.6z M30.1,95.8c-2.1,0-3.8-1.7-3.8-3.8c0-2.1,1.7-3.8,3.8-3.8c2.1,0,3.8,1.7,3.8,3.8
	C33.9,94.2,32.2,95.8,30.1,95.8z M49.6,45.4c-2.1,0-3.8-1.7-3.8-3.8c0-2.1,1.7-3.8,3.8-3.8c2.1,0,3.8,1.7,3.8,3.8
	C53.4,43.7,51.7,45.4,49.6,45.4z M69.2,95.8c-2.1,0-3.8-1.7-3.8-3.8c0-2.1,1.7-3.8,3.8-3.8c2.1,0,3.8,1.7,3.8,3.8
	C72.9,94.2,71.2,95.8,69.2,95.8z M101,11.7c-2.1,0-3.8-1.7-3.8-3.8v0c0-2.1,1.7-3.8,3.8-3.8c2.1,0,3.8,1.7,3.8,3.8v0
	C104.7,10,103,11.7,101,11.7z"/>
</svg>
