<?xml version="1.0" encoding="utf-8"?>
<!-- Generator: Adobe Illustrator 21.0.0, SVG Export Plug-In . SVG Version: 6.00 Build 0)  -->
<svg version="1.1" id="Layer_1" xmlns="http://www.w3.org/2000/svg" xmlns:xlink="http://www.w3.org/1999/xlink" x="0px" y="0px"
	 viewBox="0 0 150 150" style="enable-background:new 0 0 150 150;" xml:space="preserve">
<style type="text/css">
	.st0{fill:#F2F2F2;}
	.st1{fill:#023756;}
</style>
<path class="st0" d="M144.5,19.5v111c0,7.7-6.3,14-14,14h-111c-7.7,0-14-6.3-14-14v-111c0-7.7,6.3-14,14-14h111
	C138.2,5.5,144.5,11.8,144.5,19.5z"/>
<path class="st1" d="M130.5,0h-111C8.8,0,0,8.8,0,19.5v111C0,141.2,8.8,150,19.5,150h111c10.8,0,19.5-8.8,19.5-19.5v-111
	C150,8.8,141.2,0,130.5,0z M144.5,130.5c0,7.7-6.3,14-14,14h-111c-7.7,0-14-6.3-14-14v-111c0-7.7,6.3-14,14-14h111
	c7.7,0,14,6.3,14,14V130.5z"/>
<path class="st1" d="M121.2,25.4c-4.3,0-7.8,3.5-7.8,7.8c0,1.9,0.7,3.6,1.8,5L95.5,89.7l-5.9,15.5l-5.9-15.5l-7-18.5
	c0.9-1.3,1.4-2.8,1.4-4.5c0-4.3-3.5-7.9-7.8-7.9c-4.3,0-7.9,3.5-7.9,7.9c0,1.7,0.6,3.2,1.5,4.5l-7.1,18.5l-5.9,15.5L45,89.7l-9.9-26
	c1-1.3,1.6-2.9,1.6-4.7c0-4.3-3.5-7.8-7.8-7.8c-4.3,0-7.9,3.5-7.9,7.8c0,3.8,2.8,7,6.5,7.7l8.8,23l8.5,22.3c-1,1.3-1.7,3-1.7,4.8
	c0,4.3,3.5,7.9,7.8,7.9c4.4,0,7.9-3.5,7.9-7.9c0-1.8-0.6-3.4-1.7-4.8l8.5-22.3l4.7-12.3l4.7,12.3l8.5,22.3c-1,1.3-1.7,3-1.7,4.8
	c0,4.3,3.5,7.9,7.9,7.9c4.3,0,7.8-3.5,7.8-7.9c0-1.8-0.6-3.4-1.6-4.8l8.5-22.3l18.6-48.8c3.5-0.8,6.2-3.9,6.2-7.7
	C129,28.9,125.5,25.4,121.2,25.4z M28.8,62.7c-2.1,0-3.7-1.7-3.7-3.7c0-2.1,1.7-3.7,3.7-3.7c2.1,0,3.7,1.7,3.7,3.7
	C32.6,61,30.9,62.7,28.8,62.7z M50.9,120.5c-2.1,0-3.7-1.7-3.7-3.7c0-2.1,1.7-3.7,3.7-3.7c2.1,0,3.7,1.7,3.7,3.7
	C54.6,118.8,52.9,120.5,50.9,120.5z M70.2,70.4c-2.1,0-3.7-1.7-3.7-3.7c0-2.1,1.7-3.7,3.7-3.7c2.1,0,3.7,1.7,3.7,3.7
	C74,68.7,72.3,70.4,70.2,70.4z M89.6,120.5c-2.1,0-3.7-1.7-3.7-3.7c0-2.1,1.7-3.7,3.7-3.7c2.1,0,3.7,1.7,3.7,3.7
	C93.3,118.8,91.7,120.5,89.6,120.5z M121.2,37c-2.1,0-3.7-1.7-3.7-3.7v0c0-2.1,1.7-3.7,3.7-3.7c2.1,0,3.7,1.7,3.7,3.7v0
	C124.9,35.3,123.2,37,121.2,37z"/>
</svg>
