<?xml version="1.0" encoding="utf-8"?>
<!-- Generator: Adobe Illustrator 21.0.0, SVG Export Plug-In . SVG Version: 6.00 Build 0)  -->
<svg version="1.1" id="Layer_1" xmlns="http://www.w3.org/2000/svg" xmlns:xlink="http://www.w3.org/1999/xlink" x="0px" y="0px"
	 viewBox="0 0 163.3 150" style="enable-background:new 0 0 163.3 150;" xml:space="preserve">
<style type="text/css">
	.st0{fill:#023756;}
</style>
<path class="st0" d="M151.4-0.2c-6.6,0-11.9,5.3-11.9,11.9c0,2.9,1,5.5,2.7,7.5L112.6,97l-8.9,23.4L94.8,97L84.1,69
	c1.4-1.9,2.2-4.3,2.2-6.8c0-6.6-5.3-11.9-11.9-11.9c-6.6,0-11.9,5.3-11.9,11.9c0,2.6,0.8,4.9,2.2,6.8L54.1,97l-8.9,23.5L36.3,97
	l-15-39.4c1.5-2,2.4-4.4,2.4-7.1c0-6.6-5.3-11.9-11.9-11.9C5.3,38.7,0,44,0,50.5c0,5.8,4.2,10.7,9.8,11.7L23,97l12.8,33.7
	c-1.5,2-2.5,4.5-2.5,7.2c0,6.6,5.3,11.9,11.9,11.9c6.6,0,11.9-5.3,11.9-11.9c0-2.7-1-5.2-2.5-7.2L67.4,97l7.1-18.6L81.6,97
	l12.8,33.7c-1.5,2-2.5,4.5-2.5,7.2c0,6.6,5.3,11.9,11.9,11.9c6.6,0,11.9-5.3,11.9-11.9c0-2.7-1-5.2-2.5-7.2L125.9,97L154,23.2
	c5.3-1.2,9.4-5.9,9.4-11.6C163.3,5.1,158-0.2,151.4-0.2z M11.9,56.2c-3.1,0-5.7-2.5-5.7-5.7c0-3.1,2.5-5.7,5.7-5.7
	c3.1,0,5.6,2.5,5.6,5.7C17.5,53.6,15,56.2,11.9,56.2z M45.2,143.5c-3.1,0-5.6-2.5-5.6-5.7c0-3.1,2.5-5.7,5.6-5.7
	c3.1,0,5.7,2.5,5.7,5.7C50.8,141,48.3,143.5,45.2,143.5z M74.5,67.8c-3.1,0-5.7-2.5-5.7-5.7c0-3.1,2.5-5.7,5.7-5.7
	c3.1,0,5.7,2.5,5.7,5.7C80.1,65.3,77.6,67.8,74.5,67.8z M103.7,143.5c-3.1,0-5.7-2.5-5.7-5.7c0-3.1,2.5-5.7,5.7-5.7
	c3.1,0,5.7,2.5,5.7,5.7C109.4,141,106.9,143.5,103.7,143.5z M151.4,17.3c-3.1,0-5.6-2.5-5.7-5.6v0c0-3.1,2.5-5.7,5.7-5.7
	c3.1,0,5.7,2.5,5.7,5.7v0C157.1,14.8,154.6,17.3,151.4,17.3z"/>
</svg>
