<?xml version="1.0" encoding="utf-8"?>
<!-- Generator: Adobe Illustrator 21.0.0, SVG Export Plug-In . SVG Version: 6.00 Build 0)  -->
<svg version="1.1" id="Layer_1" xmlns="http://www.w3.org/2000/svg" xmlns:xlink="http://www.w3.org/1999/xlink" x="0px" y="0px"
	 viewBox="0 0 762.9 200" style="enable-background:new 0 0 762.9 200;" xml:space="preserve">
<style type="text/css">
	.st0{fill:#F2F2F2;}
	.st1{fill:#00CDE5;}
</style>
<g>
	<path class="st0" d="M192.7,26v148c0,10.3-8.4,18.7-18.7,18.7H26c-10.3,0-18.7-8.4-18.7-18.7V26C7.3,15.7,15.7,7.3,26,7.3h148
		C184.3,7.3,192.7,15.7,192.7,26z"/>
	<path class="st1" d="M174,0H26C11.7,0,0,11.7,0,26v148c0,14.3,11.7,26,26,26h148c14.3,0,26-11.7,26-26V26C200,11.7,188.3,0,174,0z
		 M192.7,174c0,10.3-8.4,18.7-18.7,18.7H26c-10.3,0-18.7-8.4-18.7-18.7V26C7.3,15.7,15.7,7.3,26,7.3h148c10.3,0,18.7,8.4,18.7,18.7
		V174z"/>
	<path class="st1" d="M161.5,33.9c-5.8,0-10.5,4.7-10.5,10.5c0,2.5,0.9,4.8,2.4,6.6l-26.1,68.7l-7.9,20.7l-7.9-20.7l-9.4-24.7
		c1.2-1.7,1.9-3.8,1.9-6c0-5.8-4.7-10.5-10.5-10.5c-5.8,0-10.5,4.7-10.5,10.5c0,2.3,0.7,4.3,1.9,6l-9.4,24.7l-7.9,20.7L60,119.6
		L46.7,84.9c1.3-1.8,2.2-3.9,2.2-6.3c0-5.8-4.7-10.5-10.5-10.5c-5.8,0-10.5,4.7-10.5,10.5c0,5.1,3.7,9.4,8.6,10.3l11.7,30.7
		l11.3,29.7c-1.4,1.8-2.2,4-2.2,6.4c0,5.8,4.7,10.5,10.5,10.5c5.8,0,10.5-4.7,10.5-10.5c0-2.4-0.8-4.6-2.2-6.4l11.3-29.7l6.3-16.4
		l6.3,16.4l11.3,29.7c-1.4,1.8-2.2,4-2.2,6.4c0,5.8,4.7,10.5,10.5,10.5c5.8,0,10.5-4.7,10.5-10.5c0-2.4-0.8-4.6-2.2-6.4l11.3-29.7
		l24.7-65.1c4.7-1,8.2-5.2,8.2-10.2C172,38.5,167.3,33.9,161.5,33.9z M38.5,83.6c-2.8,0-5-2.2-5-5c0-2.8,2.2-5,5-5c2.7,0,5,2.2,5,5
		C43.4,81.4,41.2,83.6,38.5,83.6z M67.8,160.7c-2.7,0-5-2.2-5-5c0-2.8,2.2-5,5-5c2.8,0,5,2.2,5,5C72.8,158.4,70.6,160.7,67.8,160.7z
		 M93.6,93.9c-2.8,0-5-2.2-5-5c0-2.8,2.2-5,5-5c2.8,0,5,2.2,5,5C98.6,91.6,96.4,93.9,93.6,93.9z M119.5,160.7c-2.8,0-5-2.2-5-5
		c0-2.8,2.2-5,5-5c2.8,0,5,2.2,5,5C124.5,158.4,122.2,160.7,119.5,160.7z M161.5,49.3c-2.8,0-5-2.2-5-5v0c0-2.8,2.2-5,5-5
		c2.8,0,5,2.2,5,5v0C166.5,47.1,164.3,49.3,161.5,49.3z"/>
</g>
<g>
	<g>
		<path class="st1" d="M317.3,57.2c1.4-1.7,2.2-3.7,2.2-5.9c0-2.5-0.9-4.8-2.7-6.6c-1.8-1.8-4-2.8-6.6-2.8c-2.5,0-4.8,0.9-6.6,2.7
			s-2.7,4.1-2.7,6.6c0,2.2,0.7,4.2,2.2,6c0.8,1,1.7,1.7,2.8,2.3v54.1l-11-11c0.3-0.9,0.4-1.8,0.4-2.8c0-2.5-0.9-4.8-2.7-6.6
			c-1.8-1.8-4-2.8-6.6-2.8c-2.5,0-4.8,0.9-6.6,2.7c-1.8,1.8-2.7,4.1-2.7,6.6c0,1,0.1,1.9,0.4,2.8l-11,11V59.4c1-0.5,2-1.3,2.8-2.3
			c1.5-1.7,2.2-3.7,2.2-6c0-2.5-0.9-4.8-2.7-6.6c-1.8-1.8-4.1-2.7-6.6-2.7c-2.5,0-4.8,1-6.6,2.8c-1.8,1.8-2.7,4.1-2.7,6.6
			c0,2.2,0.7,4.2,2.2,5.9c0.8,1,1.7,1.7,2.8,2.3v56.3c-1,0.6-2,1.3-2.8,2.3c-1.4,1.7-2.2,3.7-2.2,5.9c0,2.5,0.9,4.8,2.7,6.5
			c1.8,1.8,4,2.7,6.6,2.7c2.5,0,4.8-0.9,6.6-2.7c1.8-1.8,2.8-4,2.8-6.6c0-1-0.1-1.9-0.4-2.8l12.5-12.6c1.8,0.5,3.8,0.5,5.6,0
			l12.5,12.6c-0.3,0.9-0.4,1.8-0.4,2.8c0,2.5,1,4.8,2.8,6.6c1.8,1.8,4.1,2.7,6.6,2.7c2.5,0,4.8-0.9,6.5-2.7c1.8-1.8,2.7-4,2.7-6.6
			c0-2.2-0.7-4.2-2.2-5.9c-0.8-1-1.7-1.7-2.8-2.3V59.4C315.5,58.9,316.4,58.1,317.3,57.2z"/>
		<path class="st1" d="M391.2,82.1c1.4-1.7,2.2-3.7,2.2-5.9c0-2.5-0.9-4.8-2.7-6.6c-1.8-1.8-4-2.8-6.6-2.8c-2.2,0-4.2,0.7-6,2.2
			c-1,0.8-1.7,1.7-2.3,2.8h-32c-0.6-1-1.3-2-2.3-2.8c-1.7-1.5-3.7-2.2-6-2.2c-2.5,0-4.8,1-6.6,2.8c-1.8,1.8-2.7,4.1-2.7,6.6
			c0,2.2,0.7,4.2,2.2,5.9c0.8,1,1.7,1.7,2.8,2.3v7.8c-1,0.6-2,1.3-2.8,2.3c-1.4,1.7-2.2,3.7-2.2,5.9s0.7,4.2,2.2,5.9
			c0.8,1,1.7,1.7,2.8,2.3v7.8c-1,0.6-2,1.3-2.8,2.3c-1.4,1.7-2.2,3.7-2.2,5.9c0,2.5,0.9,4.8,2.7,6.6c1.8,1.8,4,2.7,6.6,2.7
			c2.2,0,4.2-0.7,6-2.2c1-0.8,1.7-1.7,2.3-2.8h32c0.5,1,1.3,2,2.3,2.8c1.7,1.5,3.7,2.2,6,2.2c2.5,0,4.8-0.9,6.6-2.7
			c1.8-1.8,2.7-4,2.7-6.6c0-2.5-0.9-4.8-2.7-6.6c-1.8-1.8-4-2.8-6.6-2.8c-2.2,0-4.2,0.7-6,2.2c-1,0.8-1.7,1.7-2.3,2.8h-32
			c-0.4-0.8-1-1.6-1.7-2.3c-0.7-0.7-1.4-1.2-2.3-1.7v-7.7c0.8-0.4,1.6-1,2.3-1.7c0.7-0.7,1.2-1.4,1.7-2.3h32c0.6,1,1.3,2,2.3,2.8
			c1.7,1.4,3.7,2.2,5.9,2.2c2.5,0,4.8-0.9,6.6-2.7c1.8-1.8,2.7-4,2.7-6.6c0-2.2-0.7-4.2-2.2-5.9c-0.8-1-1.7-1.7-2.8-2.3v-7.8
			C389.4,83.8,390.4,83.1,391.2,82.1z M379.7,84.4v7.7c-0.8,0.4-1.6,1-2.3,1.7c-0.7,0.7-1.2,1.4-1.7,2.3h-32c-0.4-0.8-1-1.6-1.7-2.3
			c-0.7-0.7-1.4-1.2-2.3-1.7v-7.7c0.8-0.4,1.6-1,2.3-1.7c0.7-0.7,1.2-1.4,1.7-2.3h32c0.4,0.8,1,1.6,1.7,2.3S378.9,84,379.7,84.4z"/>
		<path class="st1" d="M465.1,106.4c1.4-1.7,2.2-3.7,2.2-5.9c0-2.5-0.9-4.8-2.7-6.6c-1.8-1.8-4-2.8-6.6-2.8c-1,0-1.9,0.1-2.8,0.4
			L442.6,79c0.3-0.9,0.4-1.8,0.4-2.8c0-2.5-0.9-4.8-2.7-6.6c-1.8-1.8-4.1-2.7-6.6-2.7c-2.5,0-4.8,1-6.6,2.8
			c-1.8,1.8-2.7,4.1-2.7,6.6c0,1,0.1,1.9,0.4,2.8l-11.1,11v-5.6c1-0.5,2-1.3,2.8-2.3c1.5-1.7,2.2-3.7,2.2-6c0-2.5-0.9-4.8-2.7-6.6
			c-1.8-1.8-4.1-2.7-6.6-2.7c-2.5,0-4.8,1-6.6,2.8c-1.8,1.8-2.7,4.1-2.7,6.6c0,2.2,0.7,4.2,2.2,5.9c0.8,1,1.7,1.7,2.8,2.3v7.8
			c-1,0.6-2,1.3-2.8,2.3c-1.4,1.7-2.2,3.7-2.2,5.9s0.7,4.2,2.2,5.9c0.8,1,1.7,1.7,2.8,2.3v7.8c-1,0.6-2,1.3-2.8,2.3
			c-1.4,1.7-2.2,3.7-2.2,5.9c0,2.5,0.9,4.8,2.7,6.6c1.8,1.8,4,2.7,6.6,2.7c2.5,0,4.8-0.9,6.6-2.7c1.8-1.8,2.8-4,2.8-6.6
			c0-2.2-0.7-4.2-2.2-6c-0.8-1-1.7-1.7-2.8-2.3v-7.8c1-0.5,2-1.3,2.8-2.3c1.5-1.7,2.2-3.7,2.2-6c0-1-0.1-1.9-0.4-2.8L430.9,85
			c1.8,0.5,3.8,0.5,5.6,0l12.5,12.6c-0.3,0.9-0.4,1.8-0.4,2.8c0,2.2,0.7,4.2,2.2,6c0.8,1,1.7,1.7,2.8,2.3v7.8c-1,0.5-2,1.3-2.8,2.3
			c-1.5,1.7-2.2,3.7-2.2,6c0,2.5,1,4.8,2.8,6.6c1.8,1.8,4.1,2.7,6.6,2.7c2.5,0,4.8-0.9,6.6-2.7c1.8-1.8,2.7-4,2.7-6.6
			c0-2.2-0.7-4.2-2.2-5.9c-0.8-1-1.7-1.7-2.8-2.3v-7.8C463.3,108.1,464.3,107.3,465.1,106.4z"/>
		<path class="st1" d="M539,57.2c1.4-1.7,2.2-3.7,2.2-5.9c0-2.5-0.9-4.8-2.7-6.6c-1.8-1.8-4-2.8-6.6-2.8c-2.5,0-4.8,0.9-6.6,2.7
			c-1.8,1.8-2.7,4.1-2.7,6.6c0,2.2,0.7,4.2,2.2,6c0.8,1,1.7,1.7,2.8,2.3v7.8c-0.8,0.4-1.6,1-2.3,1.7c-0.7,0.7-1.2,1.4-1.7,2.3h-7.8
			c-0.6-1-1.3-2-2.3-2.8c-1.7-1.5-3.7-2.2-6-2.2c-2.5,0-4.8,1-6.6,2.8c-1.8,1.8-2.7,4.1-2.7,6.6c0,1,0.1,1.9,0.4,2.8l-12.6,12.6
			c-0.9-0.3-1.8-0.4-2.8-0.4c-2.5,0-4.8,1-6.6,2.8c-1.8,1.8-2.7,4.1-2.7,6.6c0,2.2,0.7,4.2,2.2,5.9c0.8,1,1.7,1.7,2.8,2.3v7.8
			c-1,0.6-2,1.3-2.8,2.3c-1.4,1.7-2.2,3.7-2.2,5.9c0,2.5,0.9,4.8,2.7,6.6c1.8,1.8,4,2.7,6.6,2.7c2.2,0,4.2-0.7,6-2.2
			c1-0.8,1.7-1.7,2.3-2.8h32c0.5,1,1.3,2,2.3,2.8c1.7,1.5,3.7,2.2,6,2.2c2.5,0,4.8-0.9,6.6-2.7c1.8-1.8,2.7-4,2.7-6.6
			c0-2.2-0.7-4.2-2.2-5.9c-0.8-1-1.7-1.7-2.8-2.3v-32c1-0.6,2-1.3,2.8-2.3c1.4-1.7,2.2-3.7,2.2-5.9c0-2.2-0.7-4.2-2.2-5.9
			c-0.8-1-1.7-1.7-2.8-2.3v-7.8C537.2,59,538.2,58.2,539,57.2z M487.7,108c1-0.5,2-1.3,2.8-2.3c1.5-1.7,2.2-3.7,2.2-6
			c0-1-0.1-1.9-0.4-2.8l12.5-12.6c0.9,0.3,1.8,0.4,2.8,0.4c2.2,0,4.2-0.7,6-2.2c1-0.8,1.7-1.7,2.3-2.8h7.8c0.4,0.8,1,1.6,1.6,2.3
			c0.7,0.7,1.5,1.3,2.3,1.7v32c-0.8,0.4-1.6,1-2.3,1.7c-0.7,0.7-1.2,1.4-1.7,2.3h-32c-0.4-0.8-1-1.6-1.7-2.3
			c-0.7-0.7-1.4-1.2-2.3-1.7V108z"/>
		<path class="st1" d="M605.8,115.3c-2.2,0-4.2,0.7-6,2.2c-1,0.8-1.7,1.7-2.3,2.8h-7.8c-0.4-0.8-1-1.6-1.6-2.3
			c-0.7-0.7-1.5-1.3-2.3-1.7v-32c1-0.6,2-1.3,2.8-2.3c1.4-1.7,2.2-3.7,2.2-5.9c0-2.5-0.9-4.8-2.7-6.6c-1.8-1.8-4-2.8-6.6-2.8
			c-2.2,0-4.2,0.7-6,2.2c-1,0.8-1.7,1.7-2.3,2.8h-7.8c-0.5-1-1.3-2-2.3-2.8c-1.7-1.5-3.7-2.2-6-2.2c-2.5,0-4.8,1-6.6,2.8
			c-1.8,1.8-2.7,4.1-2.7,6.6c0,2.5,0.9,4.8,2.7,6.5c1.8,1.8,4,2.7,6.6,2.7c2.2,0,4.2-0.7,6-2.2c1-0.8,1.7-1.7,2.3-2.8h7.8
			c0.4,0.8,1,1.6,1.6,2.3c0.7,0.7,1.5,1.3,2.3,1.7v31.9c-0.8,0.4-1.6,1-2.3,1.7c-0.7,0.7-1.2,1.4-1.6,2.3h-7.8c-0.5-1-1.3-2-2.3-2.8
			c-1.7-1.5-3.7-2.2-6-2.2c-2.5,0-4.8,1-6.6,2.8c-1.8,1.8-2.7,4.1-2.7,6.6c0,2.5,0.9,4.8,2.7,6.5c1.8,1.8,4,2.7,6.6,2.7
			c2.2,0,4.2-0.7,6-2.2c1-0.8,1.7-1.7,2.3-2.8h7.8c0.6,1,1.3,2,2.3,2.8c1.7,1.5,3.7,2.2,6,2.2c2.2,0,4.2-0.7,6-2.2
			c1-0.8,1.7-1.7,2.3-2.8h7.8c0.6,1,1.3,2,2.3,2.8c1.7,1.5,3.7,2.2,6,2.2c2.5,0,4.8-0.9,6.5-2.7c1.8-1.8,2.7-4,2.7-6.6
			c0-2.5-0.9-4.8-2.7-6.6C610.6,116.2,608.3,115.3,605.8,115.3z"/>
		<path class="st1" d="M581.5,61.1c2.5,0,4.8-0.9,6.5-2.7c1.8-1.8,2.7-4,2.7-6.6c0-2.5-0.9-4.8-2.7-6.6c-1.8-1.8-4-2.8-6.6-2.8
			c-2.5,0-4.8,0.9-6.6,2.7c-1.8,1.8-2.7,4.1-2.7,6.6c0,2.5,1,4.8,2.8,6.6C576.8,60.2,579,61.1,581.5,61.1z"/>
		<path class="st1" d="M686.8,82c1.4-1.7,2.2-3.7,2.2-5.9c0-2.5-0.9-4.8-2.7-6.6c-1.8-1.8-4-2.8-6.6-2.8c-2.2,0-4.2,0.7-6,2.2
			c-1,0.8-1.7,1.7-2.3,2.8h-7.8c-0.5-1-1.3-2-2.3-2.8c-1.7-1.5-3.7-2.2-6-2.2c-2.5,0-4.8,1-6.6,2.8c-1.8,1.8-2.7,4.1-2.7,6.6
			c0,1,0.1,1.9,0.4,2.8L634,91.4c-0.9-0.3-1.8-0.4-2.8-0.4c-2.5,0-4.8,1-6.6,2.8c-1.8,1.8-2.7,4.1-2.7,6.6c0,2.2,0.7,4.2,2.2,5.9
			c0.8,1,1.7,1.7,2.8,2.3v7.7c-1.1,0.6-2,1.3-2.8,2.3c-1.4,1.7-2.1,3.7-2.1,6c0,2.5,0.9,4.8,2.7,6.5c1.8,1.8,4,2.7,6.6,2.7
			c2.2,0,4.2-0.7,6-2.2c1-0.8,1.7-1.7,2.3-2.8h32c0.4,0.8,1,1.6,1.6,2.3c0.7,0.7,1.5,1.3,2.3,1.7v7.7c-0.8,0.4-1.6,1-2.3,1.7
			c-0.7,0.7-1.2,1.4-1.6,2.3h-32c-0.5-1-1.3-2-2.3-2.8c-1.7-1.5-3.7-2.2-6-2.2c-2.5,0-4.8,0.9-6.6,2.7c-1.8,1.8-2.7,4-2.7,6.6
			c0,2.5,0.9,4.8,2.7,6.6c1.8,1.8,4,2.8,6.6,2.8c2.2,0,4.2-0.7,6-2.2c1-0.8,1.7-1.7,2.3-2.8h32c0.6,1,1.3,2,2.3,2.8
			c1.7,1.5,3.7,2.2,6,2.2c2.5,0,4.8-1,6.6-2.8c1.8-1.8,2.7-4.1,2.7-6.6c0-2.2-0.7-4.2-2.2-5.9c-0.8-1-1.7-1.7-2.8-2.3v-7.7
			c1-0.6,2-1.3,2.8-2.3c1.4-1.7,2.2-3.7,2.2-5.9c0-2.2-0.7-4.2-2.1-6c-0.8-1-1.7-1.8-2.8-2.3v-32C685.1,83.8,686,83,686.8,82z
			 M635.5,108.6c1-0.5,2-1.3,2.8-2.3c1.5-1.7,2.2-3.7,2.2-6c0-1-0.1-1.9-0.4-2.8L652.6,85c0.9,0.3,1.8,0.4,2.8,0.4
			c2.2,0,4.2-0.7,6-2.2c1-0.8,1.7-1.7,2.3-2.8h7.8c0.4,0.8,1,1.6,1.6,2.3c0.7,0.7,1.5,1.3,2.3,1.7v31.9c-0.8,0.4-1.6,1-2.3,1.7
			c-0.7,0.7-1.2,1.4-1.6,2.3h-32c-0.4-0.8-1-1.6-1.6-2.3c-0.7-0.7-1.5-1.3-2.3-1.7V108.6z"/>
		<path class="st1" d="M757.9,116.4v-32c1-0.6,2-1.3,2.8-2.3c1.4-1.7,2.2-3.7,2.2-5.9c0-2.5-0.9-4.8-2.7-6.6c-1.8-1.8-4-2.8-6.6-2.8
			c-2.2,0-4.2,0.7-6,2.2c-1,0.8-1.7,1.7-2.3,2.8h-32c-0.6-1-1.3-2-2.3-2.8c-1.7-1.5-3.7-2.2-6-2.2c-2.5,0-4.8,1-6.6,2.8
			c-1.8,1.8-2.7,4.1-2.7,6.6c0,2.2,0.7,4.2,2.2,5.9c0.8,1,1.7,1.7,2.8,2.3v32c-1,0.6-2,1.3-2.8,2.3c-1.4,1.7-2.2,3.7-2.2,5.9
			c0,2.5,0.9,4.8,2.7,6.6c1.8,1.8,4,2.7,6.6,2.7c2.2,0,4.2-0.7,6-2.2c1-0.8,1.7-1.7,2.3-2.8h32c0.5,1,1.3,2,2.3,2.8
			c1.7,1.5,3.7,2.2,6,2.2c2.5,0,4.8-0.9,6.6-2.7c1.8-1.8,2.7-4,2.7-6.6c0-2.2-0.7-4.2-2.2-5.9C759.9,117.8,759,117,757.9,116.4z
			 M749.3,84.4v32c-0.8,0.4-1.6,1-2.3,1.7c-0.7,0.7-1.2,1.4-1.7,2.3h-32c-0.4-0.8-1-1.6-1.7-2.3c-0.7-0.7-1.4-1.2-2.3-1.7v-32
			c0.8-0.4,1.6-1,2.3-1.7c0.7-0.7,1.2-1.4,1.7-2.3h32c0.4,0.8,1,1.6,1.7,2.3S748.5,84,749.3,84.4z"/>
	</g>
</g>
</svg>
