<?xml version="1.0" encoding="utf-8"?>
<!-- Generator: Adobe Illustrator 21.0.0, SVG Export Plug-In . SVG Version: 6.00 Build 0)  -->
<svg version="1.1" id="Layer_1" xmlns="http://www.w3.org/2000/svg" xmlns:xlink="http://www.w3.org/1999/xlink" x="0px" y="0px"
	 viewBox="0 0 218.7 200" style="enable-background:new 0 0 218.7 200;" xml:space="preserve">
<style type="text/css">
	.st0{fill:#00CDE5;}
</style>
<path class="st0" d="M202.8,0c-8.8,0-15.9,7.1-15.9,15.8c0,3.8,1.3,7.3,3.6,10l-39.7,103.8l-11.9,31.2l-12-31.2l-14.3-37.4
	c1.8-2.6,2.9-5.7,2.9-9.1c0-8.7-7.1-15.8-15.9-15.8c-8.8,0-15.9,7.1-15.9,15.8c0,3.4,1.1,6.5,2.9,9.1l-14.3,37.4l-11.9,31.3
	l-11.9-31.3L28.5,77.2c2-2.6,3.3-5.9,3.3-9.5c0-8.7-7.1-15.8-15.9-15.8C7.1,51.9,0,58.9,0,67.7c0,7.8,5.6,14.2,13.1,15.5l17.7,46.4
	L48,174.6c-2.1,2.7-3.3,6-3.3,9.6c0,8.7,7.1,15.8,15.9,15.8c8.8,0,15.9-7.1,15.9-15.8c0-3.6-1.3-6.9-3.3-9.6l17.1-44.9l9.5-24.8
	l9.5,24.8l17.2,44.9c-2.1,2.7-3.4,6-3.4,9.6c0,8.7,7.1,15.8,15.9,15.8c8.8,0,15.9-7.1,15.9-15.8c0-3.6-1.3-6.9-3.3-9.6l17.1-44.9
	l37.6-98.4c7.1-1.6,12.5-7.9,12.5-15.5C218.7,7.1,211.5,0,202.8,0z M15.9,75.2c-4.2,0-7.6-3.4-7.6-7.5c0-4.2,3.4-7.5,7.6-7.5
	c4.1,0,7.5,3.4,7.5,7.5C23.4,71.8,20.1,75.2,15.9,75.2z M60.5,191.7c-4.1,0-7.5-3.4-7.5-7.5c0-4.2,3.4-7.5,7.5-7.5
	c4.2,0,7.6,3.4,7.6,7.5C68.1,188.3,64.7,191.7,60.5,191.7z M99.7,90.7c-4.2,0-7.6-3.4-7.6-7.5c0-4.2,3.4-7.5,7.6-7.5
	c4.2,0,7.6,3.4,7.6,7.5C107.3,87.4,103.9,90.7,99.7,90.7z M138.9,191.7c-4.2,0-7.6-3.4-7.6-7.5c0-4.2,3.4-7.5,7.6-7.5
	c4.2,0,7.6,3.4,7.6,7.5C146.5,188.3,143.1,191.7,138.9,191.7z M202.8,23.3c-4.2,0-7.5-3.3-7.6-7.5v0c0-4.2,3.4-7.5,7.6-7.5
	c4.2,0,7.6,3.4,7.6,7.5v0C210.3,20,207,23.3,202.8,23.3z"/>
</svg>
